<?xml version="1.0" encoding="UTF-8" standalone="no"?>
<svg
   width="200mm"
   height="200mm"
   viewBox="-40 -40 480 480"
   version="1.1">
    <path style="fill:none;stroke:#000000;stroke-width:0.25;stroke-linecap:butt;stroke-linejoin:miter;stroke-opacity:1"
     d="M 0,0 H 400 V 400 H 0 V 0"/>
    <path style="fill:none;stroke:#000000;stroke-width:0.25;stroke-linecap:butt;stroke-linejoin:miter;stroke-opacity:1"
     d="M -5,400 H 0 V 405"/>
    <path style="fill:none;stroke:#000000;stroke-width:0.25;stroke-linecap:butt;stroke-linejoin:miter;stroke-opacity:1"
     d="M 100,400 V 405"/>
    <path style="fill:none;stroke:#000000;stroke-width:0.25;stroke-linecap:butt;stroke-linejoin:miter;stroke-opacity:1"
     d="M 200,400 V 405"/>
    <path style="fill:none;stroke:#000000;stroke-width:0.25;stroke-linecap:butt;stroke-linejoin:miter;stroke-opacity:1"
     d="M 300,400 V 405"/>
    <path style="fill:none;stroke:#000000;stroke-width:0.25;stroke-linecap:butt;stroke-linejoin:miter;stroke-opacity:1"
     d="M 400,400 V 405"/>
    <path style="fill:none;stroke:#000000;stroke-width:0.25;stroke-linecap:butt;stroke-linejoin:miter;stroke-opacity:1"
     d="M -5,300 H 0"/>
    <path style="fill:none;stroke:#000000;stroke-width:0.25;stroke-linecap:butt;stroke-linejoin:miter;stroke-opacity:1"
     d="M -5,200 H 0"/>
    <path style="fill:none;stroke:#000000;stroke-width:0.25;stroke-linecap:butt;stroke-linejoin:miter;stroke-opacity:1"
     d="M -5,100 H 0"/>
    <path style="fill:none;stroke:#000000;stroke-width:0.25;stroke-linecap:butt;stroke-linejoin:miter;stroke-opacity:1"
     d="M -5,0 H 0"/>
    <text style="font-size:9px;line-height:1.25;font-family:sans-serif;text-align:center;text-anchor:middle"
       x="0" y="415">-1</text>
    <text style="font-size:9px;line-height:1.25;font-family:sans-serif;text-align:center;text-anchor:middle"
       x="100" y="415">-0.5</text>
    <text style="font-size:9px;line-height:1.25;font-family:sans-serif;text-align:center;text-anchor:middle"
       x="200" y="415">0</text>
    <text style="font-size:9px;line-height:1.25;font-family:sans-serif;text-align:center;text-anchor:middle"
       x="300" y="415">0.5</text>
    <text style="font-size:9px;line-height:1.25;font-family:sans-serif;text-align:center;text-anchor:middle"
       x="400" y="415">1</text>
    <text style="font-size:9px;line-height:1.25;font-family:sans-serif;text-align:right;text-anchor:end"
       x="-10" y="403.5">1</text>
    <text style="font-size:9px;line-height:1.25;font-family:sans-serif;text-align:right;text-anchor:end"
       x="-10" y="303.5">0.5</text>
    <text style="font-size:9px;line-height:1.25;font-family:sans-serif;text-align:right;text-anchor:end"
       x="-10" y="203.5">0</text>
    <text style="font-size:9px;line-height:1.25;font-family:sans-serif;text-align:right;text-anchor:end"
       x="-10" y="103.5">-0.5</text>
    <text style="font-size:9px;line-height:1.25;font-family:sans-serif;text-align:right;text-anchor:end"
       x="-10" y="3.5">-1</text>
    <text style="font-size:11px;line-height:1.25;font-family:sans-serif;text-align:center;text-anchor:middle"
       x="0" y="-5">opsz</text>
    <text style="font-size:11px;line-height:1.25;font-family:sans-serif;text-align:left;text-anchor:start"
       x="405" y="403.5">wght</text>

    <path style="fill:none;stroke:#000000;stroke-width:1;stroke-linecap:butt;stroke-linejoin:miter;stroke-opacity:1"
     d="M 150,0 L 220,400"/>
    <path style="fill:#B6C700;stroke:none;fill-opacity:.35"
     d="M 0,400 H 215.625 V 350 H 0 V 400"/>
    <path style="fill:#9FC700;stroke:none;fill-opacity:.35"
     d="M 0,350 H 206.875 V 300 H 0 V 350"/>
    <path style="fill:#7EC700;stroke:none;fill-opacity:.35"
     d="M 0,300 H 198.125 V 250 H 0 V 300"/>
    <path style="fill:#5AC700;stroke:none;fill-opacity:.35"
     d="M 0,250 H 189.375 V 200 H 0 V 250"/>
    <path style="fill:#5AC700;stroke:none;fill-opacity:.35"
     d="M 0,200 H 180.625 V 150 H 0 V 200"/>
    <path style="fill:#28C700;stroke:none;fill-opacity:.35"
     d="M 0,150 H 171.875 V 100 H 0 V 150"/>
    <path style="fill:#00C728;stroke:none;fill-opacity:.35"
     d="M 0,100 H 163.125 V 50 H 0 V 100"/>
    <path style="fill:#00C77B;stroke:none;fill-opacity:.35"
     d="M 0,50 H 154.375 V 0 H 0 V 50"/>

</svg>
